<?xml version="1.0" encoding="UTF-8" standalone="no"?>
<svg
   xmlns:dc="http://purl.org/dc/elements/1.1/"
   xmlns:cc="http://creativecommons.org/ns#"
   xmlns:rdf="http://www.w3.org/1999/02/22-rdf-syntax-ns#"
   xmlns:svg="http://www.w3.org/2000/svg"
   xmlns="http://www.w3.org/2000/svg"
   xmlns:sodipodi="http://sodipodi.sourceforge.net/DTD/sodipodi-0.dtd"
   xmlns:inkscape="http://www.inkscape.org/namespaces/inkscape"
   width="896pt"
   height="477pt"
   viewBox="0 0 896 477"
   version="1.1"
   id="svg3547"
   inkscape:version="0.91pre3 r13670"
   sodipodi:docname="2014-2015.svg">
  <metadata
     id="metadata3615">
    <rdf:RDF>
      <cc:Work
         rdf:about="">
        <dc:format>image/svg+xml</dc:format>
        <dc:type
           rdf:resource="http://purl.org/dc/dcmitype/StillImage" />
      </cc:Work>
    </rdf:RDF>
  </metadata>
  <defs
     id="defs3613" />
  <sodipodi:namedview
     pagecolor="#ffffff"
     bordercolor="#666666"
     borderopacity="1"
     objecttolerance="10"
     gridtolerance="10"
     guidetolerance="10"
     inkscape:pageopacity="0"
     inkscape:pageshadow="2"
     inkscape:window-width="1475"
     inkscape:window-height="767"
     id="namedview3611"
     showgrid="false"
     inkscape:zoom="1.0428571"
     inkscape:cx="782.96623"
     inkscape:cy="425.32179"
     inkscape:window-x="-8"
     inkscape:window-y="-8"
     inkscape:window-maximized="1"
     inkscape:current-layer="svg3547" />
  <path
     style="fill:#65c5f4;fill-opacity:1"
     d="M 897.41211 1.8007812 C 883.23711 2.1132812 868.42539 5.5742183 857.52539 15.136719 C 840.67539 29.474219 833.47461 52.186719 832.53711 73.699219 C 831.76211 97.624219 835.87461 122.31328 847.97461 143.23828 C 852.52461 150.63828 857.76172 157.84922 864.94922 162.88672 C 852.14922 165.71172 838.93711 165.91289 826.03711 168.15039 C 814.46211 142.42539 803.325 116.51328 792 90.675781 C 781.3125 67.025781 771.46172 42.999219 760.44922 19.511719 C 750.27422 20.949219 740.04961 21.962891 729.84961 23.025391 C 728.31211 23.500391 725.6625 23.049609 725.1875 25.037109 C 714.6625 78.099609 702.97578 130.94961 692.55078 184.03711 C 658.95078 188.77461 625.16172 192.2625 591.51172 196.625 C 590.43672 183.55 588.95 170.52578 587.5625 157.48828 C 587.05 152.15078 586.86328 146.75039 585.48828 141.52539 C 600.93828 138.38789 616.8625 138.23672 632.375 135.44922 C 648.825 131.99922 663.275 119.90078 668.9375 103.98828 C 675.6 84.563283 670.9875 60.9625 655.375 47.0625 C 645.0125 37.3375 630.06289 34.774219 616.33789 35.761719 C 593.12539 38.086719 569.98789 41.112109 546.77539 43.412109 C 552.01289 95.674609 557.56328 147.89961 562.86328 200.16211 C 547.83828 202.21211 532.6125 203.02539 517.75 206.08789 C 523.6125 200.13789 529.36328 193.71289 531.98828 185.58789 C 537.70078 168.37539 534.61172 147.79961 522.13672 134.22461 C 514.78672 126.18711 503.88672 122.94961 493.57422 120.72461 C 481.92422 118.93711 470.28711 117.13711 458.59961 115.59961 C 450.69961 114.07461 441.61289 111.32539 437.71289 103.58789 C 435.62539 97.700393 436.20039 90.412109 440.46289 85.599609 C 447.45039 76.899609 459.58789 75.025391 470.08789 75.275391 C 479.72539 75.450391 488.56289 81.362891 492.90039 89.900391 C 501.82539 86.512891 510.88789 83.4875 519.77539 80 C 516.22539 72.825 511.73789 65.888281 505.02539 61.300781 C 490.91289 51.600781 472.82578 48.825 456.11328 51.625 C 441.25078 53.3125 426.65078 60.211719 417.11328 71.949219 C 400.95078 91.324219 404.8125 123.68672 424.5 139.19922 C 437.5625 147.93672 453.92578 148.08711 468.86328 151.09961 C 476.78828 152.93711 485.12578 153.16328 492.80078 156.05078 C 502.35078 159.58828 506.975 171.60039 503.4375 180.90039 C 500.325 188.48789 492.83711 193.48789 485.16211 195.65039 C 473.11211 198.73789 459.58672 199.88711 448.07422 194.28711 C 441.38672 191.07461 437.22578 184.63789 434.42578 178.02539 C 425.16328 179.87539 416.41172 184.14961 407.13672 186.28711 C 411.46172 198.19961 419.54961 209.73711 431.53711 214.84961 C 430.79961 215.67461 429.90039 216.19961 428.83789 216.41211 C 423.43789 217.42461 417.93828 217.53711 412.48828 218.09961 C 415.58828 224.51211 419.26211 230.625 422.41211 237 C 437.78711 236.0125 453.025 233.58711 468.375 232.41211 C 556.45 222.99961 644.5375 213.93711 732.625 204.59961 C 859.6125 191.41211 986.57537 177.73789 1113.5879 164.77539 C 1113.0129 154.42539 1112.35 144.07461 1111.875 133.72461 C 1103.675 134.88711 1095.3746 134.86328 1087.2246 136.30078 C 1039.7496 142.10078 992.27578 147.8625 944.80078 153.625 C 955.05078 141.3125 960.12461 125.11211 959.47461 109.16211 C 950.57461 109.22461 941.67461 109.2 932.78711 109.125 C 932.93711 119.575 930.02422 130.2125 923.38672 138.4375 C 918.31172 145.3375 909.76289 149.18828 901.27539 149.11328 C 891.21289 148.92578 882.48828 142.43711 877.05078 134.34961 C 867.96328 120.49961 865.34961 103.625 863.91211 87.4375 C 862.38711 75.3875 863.31328 63.075 866.30078 51.3125 C 868.67578 43.5125 872.7125 35.686719 879.75 31.136719 C 888.875 24.924219 901.88789 25.000781 910.65039 31.863281 C 919.66289 38.925781 924.25039 49.899609 927.58789 60.537109 C 935.93789 59.099609 944.16172 56.950781 952.38672 54.988281 C 954.39922 54.575781 953.40078 52.299219 953.17578 51.011719 C 949.30078 37.649219 942.90039 24.486719 932.27539 15.199219 C 922.82539 6.6367183 910.11211 1.9132813 897.41211 1.8007812 z M 744.17578 52.337891 C 746.90078 61.425391 751.37539 69.824219 754.96289 78.574219 C 761.01289 93.049219 767.63789 107.37422 773.46289 121.88672 C 758.27539 124.29922 742.8375 125.1 727.625 127.5 C 732.4875 102.725 737.47539 77.961719 742.40039 53.199219 C 742.83789 52.986719 743.72578 52.550391 744.17578 52.337891 z M 614.76953 62.792969 C 617.58854 62.768149 620.41172 62.878125 623.23828 63.175781 C 634.76328 64.400781 642.20078 76.524609 641.55078 87.474609 C 641.91328 97.449609 634.5625 106.5 625.1875 109.3125 C 615.725 112.1625 605.72422 112.1375 596.01172 113.5 C 591.73672 114.1375 587.45 114.68789 583.125 114.65039 C 581.725 98.450393 579.83672 82.3 578.19922 66.125 C 590.39687 65.515625 602.55382 62.900522 614.76953 62.792969 z M 783.92578 145.55078 C 788.13828 154.16328 791.27422 163.25 795.69922 171.75 C 769.38672 175.125 742.96289 177.79922 716.71289 181.63672 C 718.87539 172.39922 720.2375 162.97539 722.5 153.77539 C 722.7625 153.42539 723.28828 152.71328 723.55078 152.36328 C 743.67578 150.15078 763.78828 147.78828 783.92578 145.55078 z "
     transform="scale(0.8,0.8)"
     id="path3551" />
  <path
     fill="#26c4ee"
     d=" M 206.62 58.68 C 241.76 54.97 276.93 51.48 312.11 48.10 C 306.90 52.59 302.13 57.57 297.11 62.27 C 296.09 63.43 294.42 63.07 293.07 63.20 C 270.38 63.35 247.69 63.52 225.00 63.86 C 219.13 64.50 213.27 63.75 207.40 63.77 C 207.13 62.07 206.87 60.38 206.62 58.68 Z"
     id="path3555" />
  <path
     fill="#26c4ee"
     d=" M 204.99 69.74 C 233.74 69.15 262.49 68.59 291.23 67.61 C 290.48 71.57 289.98 75.57 289.58 79.57 C 249.69 85.22 209.73 90.36 169.82 95.89 C 164.37 96.38 159.01 97.78 153.51 97.74 C 153.45 95.28 152.76 92.72 153.32 90.31 C 166.70 84.14 180.52 78.88 194.07 73.04 C 197.59 71.62 201.07 69.61 204.99 69.74 Z"
     id="path3559" />
  <path
     fill="#26c4ee"
     d=" M 152.00 104.02 C 198.42 97.85 244.83 91.61 291.24 85.37 C 291.16 90.59 291.22 95.81 291.23 101.03 C 291.34 102.30 291.17 104.11 289.62 104.38 C 226.32 115.99 163.08 127.92 99.79 139.56 C 99.64 136.19 99.53 132.79 98.63 129.53 C 101.18 127.25 104.47 126.17 107.48 124.67 C 118.99 119.15 130.47 113.56 142.00 108.08 C 145.27 106.59 148.38 104.54 152.00 104.02 Z"
     id="path3561" />
  <path
     fill="#26c4ee"
     d=" M 225.00 121.79 C 247.93 117.46 270.95 113.58 293.86 109.13 C 294.35 113.17 294.41 117.27 295.17 121.28 C 296.62 128.16 296.43 135.25 297.17 142.22 C 295.83 144.25 292.91 143.67 290.86 144.39 C 229.22 157.65 167.60 170.97 105.96 184.25 C 90.69 187.31 75.55 191.19 60.22 193.87 C 58.81 184.98 58.50 175.94 57.06 167.05 C 65.58 161.91 74.02 156.64 82.54 151.52 C 85.85 149.58 88.92 147.13 92.53 145.76 C 136.71 137.91 180.83 129.70 225.00 121.79 Z"
     id="path3563" />
  <path
     d="M 1090.7754 179.36328 C 1057.7754 183.18828 1024.7504 186.7625 991.77539 190.6875 C 992.30039 221.925 991.625 253.18711 992.875 284.41211 C 1001.3625 284.59961 1009.825 285.8125 1018.3125 285.8125 C 1021.125 282.275 1022.5875 277.81172 1025.6875 274.44922 C 1035.3625 262.78672 1054.3871 258.78672 1067.0371 267.94922 C 1084.0871 279.84922 1085.6754 307.74961 1070.6504 321.91211 C 1063.4004 328.41211 1053.2008 330.62461 1043.6758 329.97461 C 1034.5008 329.43711 1025.8633 324.28789 1020.7383 316.71289 C 1018.8883 314.02539 1017.5879 310.98672 1015.4629 308.51172 C 1006.5129 310.74922 997.65039 313.32539 988.71289 315.65039 C 992.88789 327.11289 999.48789 338.29922 1010.0879 344.88672 C 1013.7504 347.43672 1018.3383 348.37422 1021.6758 351.44922 C 1008.4758 352.47422 995.325 354.03828 982.1875 355.61328 C 981.625 348.88828 980.775 342.18672 980.4375 335.44922 C 965.5 337.14922 950.53789 338.6125 935.65039 340.6875 C 931.71289 307.05 928.71172 273.3 925.01172 239.625 C 923.32422 224.6875 922.34961 209.63672 920.16211 194.76172 C 914.03711 195.17422 907.81211 195.52461 901.84961 197.03711 C 900.07461 198.61211 899.3375 201.0875 898.0625 203.0625 C 893.4375 211.025 887.11328 217.81328 880.92578 224.55078 C 873.23828 232.98828 862.49922 237.41172 852.94922 243.26172 C 853.86172 253.41172 854.91289 263.56289 855.90039 273.71289 C 864.70039 268.02539 873.18711 261.77422 880.72461 254.44922 C 886.18711 249.51172 890.72422 243.64961 896.26172 238.78711 C 896.52422 250.48711 898.325 262.06172 899.375 273.69922 C 901.9625 296.88672 903.81289 320.16328 906.83789 343.30078 C 901.30039 344.76328 895.57461 345.05 889.91211 345.625 C 879.54961 346.8375 869.21172 348.18789 858.82422 349.15039 C 859.22422 355.85039 860.18711 362.49961 860.97461 369.16211 C 841.49961 371.31211 822.01328 373.45078 802.55078 375.73828 C 817.85078 363.48828 826.25 344.35078 828 325.11328 C 830.2 300.53828 828.18672 274.91328 817.44922 252.36328 C 811.09922 237.82578 800.39961 224.43828 785.47461 218.17578 C 767.58711 210.87578 745.80078 213.7375 730.55078 225.625 C 720.06328 234.05 713.4125 246.32539 709.375 258.96289 C 705.3 272.65039 704.1625 287.1125 705.25 301.3125 C 706.35 324.75 712.53828 348.96328 727.73828 367.36328 C 732.70078 373.66328 739.41289 378.19961 746.33789 382.09961 C 728.23789 383.82461 710.17422 385.97461 692.13672 388.16211 C 691.34922 381.08711 690.46289 374.01289 690.21289 366.90039 C 662.65039 369.61289 635.2 373.425 607.625 375.9375 C 626.5375 361.8875 645.22578 347.36172 661.86328 330.63672 C 672.77578 319.86172 680.72539 305.58789 681.77539 290.08789 C 682.65039 275.06289 678.575 259.1875 668.375 247.8125 C 660.725 239.0125 650.02422 232.97461 638.51172 231.03711 C 619.83672 228.36211 599.07539 231.56289 584.71289 244.65039 C 572.11289 256.42539 564.03711 273.52578 564.22461 290.86328 C 573.49961 292.75078 582.9625 293.87461 592.375 294.91211 C 592.5875 285.36211 593.9125 275.25078 599.875 267.42578 C 605.525 259.62578 615.55039 256.23828 624.90039 256.61328 C 635.97539 256.82578 645.98711 265.06211 649.28711 275.47461 C 652.64961 285.14961 650.33789 295.77422 645.90039 304.69922 C 639.50039 317.56172 628.67539 327.45 618.21289 337 C 604.72539 348.5 591.63711 360.46289 578.09961 371.90039 C 576.28711 373.86289 573.10078 375.35039 572.92578 378.27539 C 573.42578 385.78789 574.3125 393.3 575.4375 400.75 C 557.825 403.4375 540.05 404.84922 522.375 407.01172 C 517.0875 407.57422 512.64961 410.76211 508.03711 413.09961 C 489.83711 422.71211 471.79922 432.625 453.51172 442.0625 C 451.39922 443.175 449.43672 444.5375 447.51172 445.9375 C 461.57422 443.5375 475.77539 442.29961 489.90039 440.47461 C 657.38789 420.58711 824.86211 400.65 992.34961 380.75 C 1034.8996 375.8125 1077.4125 370.38672 1120 365.76172 L 1120 364.72461 C 1118.7375 356.77461 1118.0258 348.75039 1117.8633 340.71289 C 1107.3133 341.20039 1096.8375 342.58789 1086.4375 344.40039 C 1089.5125 341.45039 1092.8867 338.8375 1095.8867 335.8125 C 1105.9492 325.2625 1112.0004 310.875 1112.0254 296.25 C 1112.4629 279.4 1105.0871 262.42539 1091.9121 251.77539 C 1074.4746 236.02539 1045.4 234.72422 1027.125 249.69922 C 1022.75 252.99922 1020.1375 257.94961 1016.125 261.59961 C 1016.325 245.81211 1015.6375 230.02578 1015.5 214.23828 C 1040.6625 211.70078 1065.7379 208.42539 1090.9004 205.83789 C 1090.8129 197.01289 1090.8129 188.18828 1090.7754 179.36328 z M 763.71875 237.24219 C 772.49591 236.98987 781.05078 241.88477 785.38672 249.53711 C 797.98672 272.02461 799.61289 298.525 799.46289 323.75 C 799.56289 334.675 797.34961 346.42578 789.84961 354.80078 C 782.81211 362.30078 771.31172 365.05039 761.51172 362.27539 C 753.73672 359.98789 748.17461 353.37422 744.97461 346.19922 C 739.52461 334.37422 736.66211 321.50078 735.22461 308.61328 C 733.09961 292.55078 732.21289 275.96289 736.40039 260.15039 C 738.07539 254.21289 740.96211 248.44961 745.47461 244.16211 C 749.94961 240.02461 755.93789 237.82578 761.96289 237.36328 C 762.54883 237.3 763.13361 237.25901 763.71875 237.24219 z "
     transform="scale(0.8,0.8)"
     id="path3567"
     style="fill:#4797c3;fill-opacity:1" />
  <path
     fill="#26c4ee"
     d=" M 65.89 203.48 C 143.31 185.76 220.77 168.21 298.17 150.39 C 299.92 155.48 302.08 160.41 303.82 165.50 C 304.57 167.60 303.90 169.83 303.78 171.98 C 303.33 177.48 303.07 182.99 302.64 188.50 C 272.08 198.58 241.27 207.92 210.61 217.74 C 160.66 233.48 110.73 249.28 60.77 265.02 C 53.04 267.72 44.99 269.52 37.47 272.81 C 33.43 263.05 31.11 252.64 27.26 242.79 C 38.71 230.37 50.23 218.01 61.69 205.59 C 62.74 204.30 64.33 203.82 65.89 203.48 Z"
     id="path3569" />
  <path
     d=" M 293.17 200.08 C 298.21 198.56 303.08 196.47 308.23 195.31 C 308.36 197.95 308.51 200.60 308.69 203.24 C 317.24 206.69 326.04 209.52 334.49 213.22 C 335.13 222.54 336.01 231.89 337.42 241.12 C 241.74 277.63 145.85 313.62 50.12 349.98 C 42.58 352.93 34.83 355.39 27.50 358.84 C 23.47 349.48 20.60 339.64 17.35 329.99 C 22.36 314.71 27.97 299.55 33.43 284.40 C 120.10 256.58 206.56 228.10 293.17 200.08 Z"
     id="path3573"
     fill="#26c4ee" />
  <path
     fill="#26c4ee"
     d=" M 39.05 367.09 C 139.68 329.38 240.22 291.40 340.89 253.82 C 363.66 255.15 386.45 257.20 409.21 258.79 C 411.42 260.48 411.39 263.69 412.43 266.09 C 417.03 279.79 420.99 293.71 426.00 307.26 C 414.83 313.31 402.99 318.06 391.52 323.55 C 287.56 371.57 183.55 419.48 79.59 467.52 C 76.46 468.85 73.49 470.91 69.98 471.03 C 61.29 471.77 52.67 473.12 43.99 473.96 C 37.19 474.46 30.48 475.92 23.64 475.79 C 16.30 458.77 8.43 441.98 1.14 424.95 C 8.66 408.98 17.12 393.43 25.53 377.89 C 26.88 375.52 27.89 372.88 29.74 370.84 C 32.64 369.14 35.94 368.31 39.05 367.09 Z"
     id="path3575" />
  <g
     id="g4260">
    <path
       id="path3577"
       d=" M 805.51 318.48 C 810.48 315.55 816.53 316.44 821.81 317.94 C 821.18 320.00 820.70 322.11 819.78 324.06 C 816.45 324.81 812.67 322.37 809.40 324.26 C 806.92 325.43 806.94 329.39 809.14 330.85 C 812.70 333.22 817.39 333.47 820.61 336.42 C 824.70 340.89 824.10 348.66 819.68 352.73 C 816.04 356.34 810.79 357.40 805.85 357.68 C 805.01 355.34 804.19 352.99 803.34 350.67 C 807.17 350.08 811.75 350.57 814.72 347.61 C 816.46 345.92 816.32 343.04 814.55 341.43 C 811.30 338.73 806.73 338.35 803.47 335.67 C 798.65 331.02 799.60 321.81 805.51 318.48 Z"
       fill="#65c5f4" />
    <path
       id="path3579"
       d=" M 778.41 322.26 C 783.36 318.69 789.88 319.67 795.39 321.17 C 794.76 323.45 794.03 325.70 793.21 327.92 C 790.21 327.28 787.10 326.32 784.05 327.08 C 781.52 327.69 779.99 331.09 781.84 333.16 C 785.38 336.80 791.48 336.31 794.77 340.31 C 798.18 344.77 797.60 351.68 793.63 355.62 C 789.99 359.47 784.53 360.74 779.42 360.85 C 778.63 358.54 777.83 356.24 777.00 353.96 C 780.53 353.47 784.40 353.62 787.51 351.64 C 790.08 350.14 790.20 345.84 787.66 344.25 C 784.21 341.86 779.68 341.36 776.59 338.43 C 772.50 333.85 773.28 325.77 778.41 322.26 Z"
       fill="#65c5f4" />
    <path
       id="path3581"
       d=" M 742.04 325.66 C 749.73 324.40 757.52 323.76 765.24 322.64 C 768.34 322.33 767.90 326.36 768.73 328.33 C 762.97 329.60 756.92 328.85 751.25 330.49 C 749.58 333.12 751.37 336.93 751.34 340.00 C 757.36 340.19 763.24 338.70 769.16 337.85 C 769.20 340.13 769.20 342.42 769.18 344.71 C 763.82 344.99 758.44 345.36 753.18 346.47 C 751.49 349.77 753.38 353.73 753.92 357.20 C 760.36 357.44 766.53 355.41 772.89 354.78 C 772.71 357.12 772.48 359.46 772.25 361.80 C 763.70 361.56 755.36 363.69 746.88 364.25 C 745.77 351.33 744.73 338.38 742.04 325.66 Z"
       fill="#65c5f4" />
    <path
       id="path3583"
       d=" M 716.86 329.84 C 723.50 325.07 734.24 324.85 739.85 331.37 C 739.59 333.64 738.26 335.58 737.22 337.55 C 733.76 335.27 729.90 332.29 725.48 333.55 C 719.81 334.56 716.51 340.56 716.90 345.99 C 716.88 352.12 720.24 359.63 727.04 360.40 C 732.33 361.26 736.29 357.18 739.59 353.70 C 740.89 355.34 742.77 356.72 743.42 358.77 C 738.59 367.57 725.80 370.33 717.80 364.30 C 707.46 356.32 706.38 338.15 716.86 329.84 Z"
       fill="#65c5f4" />
    <path
       id="path3585"
       d=" M 682.07 335.04 C 687.28 330.27 695.51 329.23 701.90 332.08 C 703.58 333.03 705.73 334.03 706.29 336.04 C 705.76 338.01 704.79 339.82 703.95 341.66 C 700.61 339.72 697.20 336.91 693.07 337.57 C 688.00 337.81 684.14 342.31 683.59 347.17 C 682.62 353.70 685.19 362.06 692.06 364.25 C 697.57 365.97 702.55 362.05 705.65 357.88 C 707.09 359.44 709.40 360.67 709.90 362.82 C 704.90 372.64 689.78 374.68 682.26 366.67 C 674.29 358.33 673.58 343.30 682.07 335.04 Z"
       fill="#65c5f4" />
    <path
       id="path3587"
       d=" M 662.19 335.31 C 664.75 334.99 667.34 334.74 669.94 334.62 C 670.71 342.58 671.16 350.58 672.32 358.51 C 672.65 362.06 673.47 365.81 672.29 369.28 C 670.61 373.43 665.89 374.84 661.88 375.57 C 656.91 376.26 651.63 377.10 646.77 375.43 C 642.40 373.60 642.14 368.14 641.43 364.13 C 640.62 355.43 638.94 346.85 637.90 338.18 C 640.50 337.90 643.11 337.67 645.73 337.59 C 646.45 345.77 647.38 353.94 648.24 362.10 C 648.58 364.94 649.16 368.53 652.15 369.76 C 655.67 370.56 659.48 370.11 662.82 368.75 C 665.14 367.92 666.02 365.25 665.71 362.98 C 664.85 353.72 663.07 344.57 662.19 335.31 Z"
       fill="#65c5f4" />
    <path
       id="path3589"
       d=" M 617.18 342.16 C 622.13 338.51 628.79 339.53 634.34 341.07 C 633.63 343.30 632.90 345.52 632.14 347.74 C 628.86 347.17 625.35 345.73 622.12 347.23 C 619.61 348.22 619.16 352.05 621.32 353.64 C 624.54 356.10 628.86 356.43 632.18 358.74 C 637.00 362.59 636.98 370.57 632.92 374.98 C 629.31 379.20 623.54 380.71 618.16 380.57 C 617.40 378.27 616.70 375.95 615.96 373.65 C 619.67 373.29 623.89 373.54 626.93 370.98 C 628.78 369.50 628.90 366.49 627.33 364.78 C 623.64 361.43 617.74 361.47 614.70 357.30 C 611.66 352.63 612.41 345.43 617.18 342.16 Z"
       fill="#65c5f4" />
    <path
       style="fill:#65c5f4;fill-opacity:1"
       id="path3591"
       transform="scale(0.8,0.8)"
       d="M 719.75977 431.17578 C 718.68926 431.21079 717.61797 431.3293 716.55078 431.53711 C 710.41328 432.56211 704.69922 436.10078 701.32422 441.36328 C 693.44922 452.56328 695.91211 469.76328 706.97461 477.98828 C 715.37461 484.82578 728.86172 484.0625 736.69922 476.6875 C 746.48672 467.5875 747.25039 451.17422 739.15039 440.76172 C 734.6332 434.77891 727.25332 430.93071 719.75977 431.17578 z M 718.47852 439.86914 C 725.52188 440.03977 731.90586 446.15117 733.33789 453.08789 C 735.77539 461.80039 730.10039 473.08711 720.52539 473.91211 C 712.28789 475.06211 705.07461 467.57578 703.91211 459.86328 C 702.41211 452.35078 706.08828 443.52422 713.55078 440.76172 C 715.19375 440.10547 716.85312 439.82976 718.47852 439.86914 z " />
    <path
       id="path3593"
       d=" M 525.92 351.87 C 535.08 351.52 544.13 350.22 553.13 348.55 C 553.43 350.64 553.77 352.74 554.07 354.83 C 550.65 355.23 547.24 355.59 543.82 355.93 C 544.63 366.96 546.56 377.86 548.11 388.81 C 545.54 389.15 542.99 389.68 540.40 389.68 C 538.42 378.89 538.94 367.58 536.03 357.00 C 532.53 357.33 529.08 358.09 525.61 358.58 C 525.70 356.34 525.79 354.10 525.92 351.87 Z"
       fill="#65c5f4" />
    <path
       style="fill:#65c5f4;fill-opacity:1"
       id="path3597"
       transform="scale(0.8,0.8)"
       d="M 622.1543 444.63281 C 619.80273 444.64062 617.42422 444.98672 615.13672 445.32422 C 609.22422 446.26172 603.27461 446.86211 597.34961 447.72461 C 600.49961 463.63711 601.98711 479.78828 603.47461 495.92578 C 606.76211 495.62578 610.075 495.45039 613.375 495.15039 C 612.8875 491.26289 612.0625 487.43828 611.75 483.55078 C 612.0125 483.20078 612.55 482.48672 612.8125 482.13672 C 619.475 480.79922 626.98711 481.99961 632.84961 477.84961 C 643.29961 470.11211 640.92422 451.11211 629.01172 445.97461 C 626.83047 444.95586 624.50586 444.625 622.1543 444.63281 z M 619.60547 452.29297 C 620.1647 452.27925 620.72461 452.28438 621.28711 452.3125 C 630.66211 453.175 633.75078 468.36172 625.48828 472.82422 C 620.73828 474.72422 615.47422 474.58711 610.44922 474.97461 C 609.48672 468.01211 608.4 461.06328 608 454.05078 C 611.85 453.41641 615.69087 452.38901 619.60547 452.29297 z " />
    <path
       id="path3599"
       d=" M 447.48 361.76 C 455.89 361.03 464.21 359.32 472.65 359.00 C 473.08 360.91 473.51 362.83 473.93 364.75 C 467.92 365.64 461.78 365.44 455.84 366.82 C 456.01 369.96 455.94 373.20 457.01 376.20 C 462.85 376.61 468.61 374.93 474.36 374.05 C 474.46 376.33 474.54 378.61 474.58 380.90 C 468.96 381.23 463.33 381.76 457.81 382.92 C 458.00 386.24 457.96 389.68 459.17 392.83 C 460.38 393.92 462.08 393.50 463.55 393.41 C 468.42 392.81 473.19 391.68 478.03 390.92 C 477.96 393.23 477.84 395.55 477.74 397.87 C 469.11 397.93 460.67 400.07 452.08 400.41 C 451.32 387.43 449.81 374.54 447.48 361.76 Z"
       fill="#65c5f4" />
    <path
       id="path3601"
       d=" M 417.12 365.26 C 426.31 365.02 435.37 363.51 444.41 361.96 C 444.66 364.05 444.92 366.14 445.18 368.24 C 441.80 368.70 438.40 369.01 434.99 369.21 C 435.74 380.31 437.80 391.25 439.22 402.27 C 436.58 402.61 433.94 402.88 431.29 403.10 C 430.21 392.12 429.47 381.10 427.50 370.23 C 423.93 370.86 420.35 371.45 416.77 371.99 C 416.87 369.74 416.99 367.50 417.12 365.26 Z"
       fill="#65c5f4" />
    <path
       id="path3605"
       d=" M 398.57 368.66 C 403.52 365.67 409.72 366.51 414.99 368.14 C 414.31 370.30 413.59 372.45 412.92 374.61 C 409.47 374.16 405.69 372.67 402.39 374.47 C 400.10 375.70 400.12 379.42 402.18 380.86 C 405.52 383.14 409.81 383.52 413.08 385.91 C 417.92 390.15 417.50 398.56 412.86 402.80 C 409.18 406.37 403.94 407.57 398.96 407.67 C 398.15 405.35 397.33 403.05 396.52 400.75 C 400.12 400.22 404.24 400.60 407.29 398.26 C 409.50 396.75 409.71 393.13 407.59 391.46 C 404.30 388.74 399.63 388.42 396.41 385.59 C 391.91 380.91 392.77 371.94 398.57 368.66 Z"
       fill="#65c5f4" />
    <path
       style="fill:#65c5f4;fill-opacity:1"
       id="path3607"
       transform="scale(0.8,0.8)"
       d="M 449.83789 464.84961 C 446.97539 465.22461 444.1125 465.57461 441.25 465.91211 C 436.45 483.01211 431.96172 500.22539 428.51172 517.65039 C 431.64922 517.36289 434.78711 517.03711 437.91211 516.66211 C 438.94961 513.11211 438.56211 508.67539 440.91211 505.77539 C 447.22461 504.28789 453.775 504.10039 460.1875 503.21289 C 461.9875 506.31289 463.425 509.58711 465.25 512.66211 C 468.525 513.21211 471.86289 512.26328 475.15039 511.98828 C 467.08789 496.07578 458.41289 480.48711 449.83789 464.84961 z M 446.69922 477.08789 C 450.46172 482.73789 453.4875 488.83789 456.375 494.96289 C 451.7125 496.31289 446.86289 496.84961 442.02539 496.91211 C 443.10039 490.19961 444.92422 483.63789 446.69922 477.08789 z " />
  </g>
</svg>
