<?xml version="1.0" encoding="UTF-8" standalone="no"?>
<!-- Created with Inkscape (http://www.inkscape.org/) -->

<svg
   xmlns:dc="http://purl.org/dc/elements/1.1/"
   xmlns:cc="http://creativecommons.org/ns#"
   xmlns:rdf="http://www.w3.org/1999/02/22-rdf-syntax-ns#"
   xmlns:svg="http://www.w3.org/2000/svg"
   xmlns="http://www.w3.org/2000/svg"
   xmlns:sodipodi="http://sodipodi.sourceforge.net/DTD/sodipodi-0.dtd"
   xmlns:inkscape="http://www.inkscape.org/namespaces/inkscape"
   width="149.88116mm"
   height="150.8824mm"
   viewBox="0 0 531.07499 534.62268"
   id="svg4535"
   version="1.1"
   inkscape:version="0.91pre3 r13670"
   sodipodi:docname="stairs_footsteps_2.svg">
  <defs
     id="defs4537" />
  <sodipodi:namedview
     id="base"
     pagecolor="#ffffff"
     bordercolor="#666666"
     borderopacity="1.0"
     inkscape:pageopacity="0.0"
     inkscape:pageshadow="2"
     inkscape:zoom="0.7"
     inkscape:cx="200.63517"
     inkscape:cy="199.12063"
     inkscape:document-units="px"
     inkscape:current-layer="layer1"
     showgrid="false"
     fit-margin-top="0"
     fit-margin-left="0"
     fit-margin-right="0"
     fit-margin-bottom="0"
     inkscape:window-width="1475"
     inkscape:window-height="767"
     inkscape:window-x="-8"
     inkscape:window-y="-8"
     inkscape:window-maximized="1" />
  <metadata
     id="metadata4540">
    <rdf:RDF>
      <cc:Work
         rdf:about="">
        <dc:format>image/svg+xml</dc:format>
        <dc:type
           rdf:resource="http://purl.org/dc/dcmitype/StillImage" />
        <dc:title></dc:title>
      </cc:Work>
    </rdf:RDF>
  </metadata>
  <g
     inkscape:label="Layer 1"
     inkscape:groupmode="layer"
     id="layer1"
     transform="translate(-25.89107,-110.76514)">
    <g
       id="g4466"
       transform="matrix(1.25,0,0,1.25,24.46607,50.640144)">
      <path
         d="m 206.62,58.68 c 35.14,-3.71 70.31,-7.2 105.49,-10.58 -5.21,4.49 -9.98,9.47 -15,14.17 -1.02,1.16 -2.69,0.8 -4.04,0.93 -22.69,0.15 -45.38,0.32 -68.07,0.66 -5.87,0.64 -11.73,-0.11 -17.6,-0.09 -0.27,-1.7 -0.53,-3.39 -0.78,-5.09 z"
         id="path4468"
         inkscape:connector-curvature="0"
         style="fill:#26c4ee" />
      <path
         d="m 204.99,69.74 c 28.75,-0.59 57.5,-1.15 86.24,-2.13 -0.75,3.96 -1.25,7.96 -1.65,11.96 -39.89,5.65 -79.85,10.79 -119.76,16.32 -5.45,0.49 -10.81,1.89 -16.31,1.85 -0.06,-2.46 -0.75,-5.02 -0.19,-7.43 13.38,-6.17 27.2,-11.43 40.75,-17.27 3.52,-1.42 7,-3.43 10.92,-3.3 z"
         id="path4470"
         inkscape:connector-curvature="0"
         style="fill:#26c4ee" />
      <path
         d="m 152,104.02 c 46.42,-6.17 92.83,-12.41 139.24,-18.65 -0.08,5.22 -0.02,10.44 -0.01,15.66 0.11,1.27 -0.06,3.08 -1.61,3.35 -63.3,11.61 -126.54,23.54 -189.83,35.18 -0.15,-3.37 -0.26,-6.77 -1.16,-10.03 2.55,-2.28 5.84,-3.36 8.85,-4.86 11.51,-5.52 22.99,-11.11 34.52,-16.59 3.27,-1.49 6.38,-3.54 10,-4.06 z"
         id="path4472"
         inkscape:connector-curvature="0"
         style="fill:#26c4ee" />
      <path
         d="m 225,121.79 c 22.93,-4.33 45.95,-8.21 68.86,-12.66 0.49,4.04 0.55,8.14 1.31,12.15 1.45,6.88 1.26,13.97 2,20.94 -1.34,2.03 -4.26,1.45 -6.31,2.17 -61.64,13.26 -123.26,26.58 -184.9,39.86 -15.27,3.06 -30.41,6.94 -45.74,9.62 -1.41,-8.89 -1.72,-17.93 -3.16,-26.82 8.52,-5.14 16.96,-10.41 25.48,-15.53 3.31,-1.94 6.38,-4.39 9.99,-5.76 44.18,-7.85 88.3,-16.06 132.47,-23.97 z"
         id="path4474"
         inkscape:connector-curvature="0"
         style="fill:#26c4ee" />
      <path
         d="m 65.89,203.48 c 77.42,-17.72 154.88,-35.27 232.28,-53.09 1.75,5.09 3.91,10.02 5.65,15.11 0.75,2.1 0.08,4.33 -0.04,6.48 -0.45,5.5 -0.71,11.01 -1.14,16.52 -30.56,10.08 -61.37,19.42 -92.03,29.24 -49.95,15.74 -99.88,31.54 -149.84,47.28 -7.73,2.7 -15.78,4.5 -23.3,7.79 -4.04,-9.76 -6.36,-20.17 -10.21,-30.02 11.45,-12.42 22.97,-24.78 34.43,-37.2 1.05,-1.29 2.64,-1.77 4.2,-2.11 z"
         id="path4476"
         inkscape:connector-curvature="0"
         style="fill:#26c4ee" />
      <path
         d="m 293.17,200.08 c 5.04,-1.52 9.91,-3.61 15.06,-4.77 0.13,2.64 0.28,5.29 0.46,7.93 8.55,3.45 17.35,6.28 25.8,9.98 0.64,9.32 1.52,18.67 2.93,27.9 -95.68,36.51 -191.57,72.5 -287.3,108.86 -7.54,2.95 -15.29,5.41 -22.62,8.86 -4.03,-9.36 -6.9,-19.2 -10.15,-28.85 5.01,-15.28 10.62,-30.44 16.08,-45.59 86.67,-27.82 173.13,-56.3 259.74,-84.32 z"
         id="path4478"
         inkscape:connector-curvature="0"
         style="fill:#26c4ee" />
      <path
         d="m 39.05,367.09 c 100.63,-37.71 201.17,-75.69 301.84,-113.27 22.77,1.33 45.56,3.38 68.32,4.97 2.21,1.69 2.18,4.9 3.22,7.3 4.6,13.7 8.56,27.62 13.57,41.17 -11.17,6.05 -23.01,10.8 -34.48,16.29 -103.96,48.02 -207.97,95.93 -311.93,143.97 -3.13,1.33 -6.1,3.39 -9.61,3.51 -8.69,0.74 -17.31,2.09 -25.99,2.93 -6.8,0.5 -13.51,1.96 -20.35,1.83 -7.34,-17.02 -15.21,-33.81 -22.5,-50.84 7.52,-15.97 15.98,-31.52 24.39,-47.06 1.35,-2.37 2.36,-5.01 4.21,-7.05 2.9,-1.7 6.2,-2.53 9.31,-3.75 z"
         id="path4480"
         inkscape:connector-curvature="0"
         style="fill:#26c4ee" />
    </g>
    <g
       style="fill:#ffffff;fill-opacity:0.78431373"
       transform="matrix(0.0223792,-0.03876191,0.03876191,0.0223792,282.72607,482.01983)"
       id="g4482">
      <title
         id="title4484">Layer 1</title>
      <g
         style="fill:#ffffff;fill-opacity:0.78431373"
         transform="matrix(-0.39653913,0.91801782,-0.91801782,-0.39653913,2126.2651,616.57536)"
         id="g4486">
        <path
           style="fill:#ffffff;fill-opacity:0.78431373"
           inkscape:connector-curvature="0"
           id="path4488"
           d="m 1292.3455,1299.3386 c 49.4751,-136.5298 80.9653,-257.0659 137.2463,-430.236 889.2795,66.51013 536.136,861.5286 -137.2463,430.236 z m -161.4034,-39.1139 c -123.5421,2.512 -242.63235,-3.4994 -359.99593,47.5799 -125.84351,58.0125 -236.29468,67.4207 -419.24488,35.7114 C 18.943485,1285.8424 -188.66342,1163.1693 -234.48721,997.14184 -289.35956,642.93573 75.631027,598.49597 342.64911,589.50171 492.06088,569.71673 1131.813,689.13885 1240.3923,834.5672 c -38.156,143.13428 -75.5927,283.665 -109.4502,425.6575 l 0,0 z" />
      </g>
    </g>
    <g
       style="fill:#ffffff;fill-opacity:0.78431373"
       transform="matrix(-0.02913921,-0.01682354,-0.01682354,0.02913921,239.51638,388.66178)"
       id="g4490">
      <title
         id="title4492">Layer 1</title>
      <g
         style="fill:#ffffff;fill-opacity:0.78431373"
         transform="matrix(-0.39653913,0.91801782,-0.91801782,-0.39653913,2126.2651,616.57536)"
         id="g4494">
        <path
           style="fill:#ffffff;fill-opacity:0.78431373"
           inkscape:connector-curvature="0"
           id="path4496"
           d="m 1292.3455,1299.3386 c 49.4751,-136.5298 80.9653,-257.0659 137.2463,-430.236 889.2795,66.51013 536.136,861.5286 -137.2463,430.236 z m -161.4034,-39.1139 c -123.5421,2.512 -242.63235,-3.4994 -359.99593,47.5799 -125.84351,58.0125 -236.29468,67.4207 -419.24488,35.7114 C 18.943485,1285.8424 -188.66342,1163.1693 -234.48721,997.14184 -289.35956,642.93573 75.631027,598.49597 342.64911,589.50171 492.06088,569.71673 1131.813,689.13885 1240.3923,834.5672 c -38.156,143.13428 -75.5927,283.665 -109.4502,425.6575 l 0,0 z" />
      </g>
    </g>
  </g>
</svg>
